<svg width="1024" height="1024" viewBox="0 0 1024 1024" fill="none" xmlns="http://www.w3.org/2000/svg">
<g id="nplogo 1">
<path id="Vector" d="M363.282 468.698C363.496 468.661 363.708 468.618 363.923 468.586C372.808 467.242 383.883 471.663 390.769 477.137C399.246 483.876 405.018 493.625 406.166 504.461C407.366 516.139 403.853 527.812 396.407 536.888C387.781 547.378 374.266 552.548 360.84 550.494C356.013 549.776 350.456 548.003 345.591 548.612C339.139 549.419 333.884 557.921 330.327 562.79C329.839 571.303 330.105 579.922 330.12 588.448C330.143 600.797 330.083 613.155 330.259 625.503C330.403 635.546 331.5 646.523 329.908 656.457C329.362 659.859 328.096 662.835 325.828 665.471C321.923 670.008 316.942 670.981 311.291 671.412C300.852 671.612 281.002 673.696 272.188 667.536C268.673 665.08 266.391 660.65 265.757 656.475C264.864 650.602 265.348 644.165 265.366 638.221L265.791 597.882C265.828 584.395 265.599 570.897 265.484 557.409C265.424 550.397 265.007 543.124 265.624 536.14C265.918 532.814 266.977 529.651 269.025 526.982C278.618 514.48 299.945 521.716 313.324 520.051C326.876 518.364 323.765 509.665 325.677 500.036C326.863 494.063 329.807 488.166 333.623 483.449C341.077 474.233 351.728 469.861 363.282 468.698Z" fill="#022937"/>
<path id="Vector_2" d="M292.494 368.289C295.136 368.045 297.806 368.021 300.459 367.983C308.5 367.868 318.843 367.595 324.915 373.804C327.292 376.234 328.721 379.39 329.389 382.697C330.676 389.063 330.047 396.119 330.019 402.589L329.985 428.783C332.033 430.139 333.996 431.653 335.984 433.097C340.602 431.877 345.088 430.438 349.296 428.147C352.63 420.786 352.327 413.381 358.715 407.536C365.037 407.459 381.151 405.668 385.856 409.257C391.163 413.304 391.873 425.042 392.723 431.193C396.938 433.387 401.563 435.083 405.933 436.967C413.604 434.525 420.895 430.915 428.356 427.903C436.228 433.2 444.575 442.108 450.099 449.691C447.166 457.046 442.587 463.795 439.335 471.042C441.302 475.66 443.371 480.234 445.539 484.762C452.667 487.899 460.212 490.356 467.465 493.245C467.662 498.412 467.494 503.586 466.962 508.729C455.016 509.461 442.867 509.112 430.875 509.459C427.758 509.319 424.831 508.937 421.765 508.357C420.474 507.357 419.194 506.335 418.505 504.816C417.025 501.55 416.611 497.405 415.63 493.916C412.854 484.041 406.384 474.858 398.403 468.485C387.454 459.666 373.414 455.629 359.453 457.288C341.675 459.33 322.241 472.047 316.363 489.613C314.843 494.158 314.975 502.346 311.786 505.932C309.603 508.386 305.412 509.024 302.317 509.213C292.878 509.788 278.536 511.179 271.043 504.262C266.582 500.144 265.389 494.193 265.109 488.381C264.811 482.206 265.324 475.938 265.439 469.758C265.581 459.458 265.628 449.156 265.582 438.856C265.564 429.534 265.434 420.214 265.191 410.895C264.987 402.104 264.485 392.63 265.756 383.921C266.321 380.052 267.679 376.337 270.416 373.471C275.947 367.679 285.118 368.447 292.494 368.289Z" fill="#EC2D2D"/>
<path id="Vector_3" d="M444.31 519.7C446.593 519.614 448.878 519.556 451.163 519.527C459.993 519.444 471.83 518.767 478.436 525.555C481.311 528.51 482.56 532.317 483.1 536.332C484.415 546.111 483.398 558.68 483.425 568.782L483.555 634.71C483.505 643.206 485.02 660.071 478.291 666.334C470.27 673.798 453.775 671.761 443.587 671.438C439.259 671.301 434.942 670.982 430.937 669.17C423.004 665.582 412.846 652.27 406.614 645.6L369.608 605.956C361.992 597.933 347.848 585.369 342.782 576.327C341.474 573.991 341.246 570.611 342.004 568.067C343.142 564.248 345.984 562.051 349.348 560.239C357.181 561.517 365.189 562.272 373.101 561.303C388.306 559.441 404.495 550.171 411.356 536.033C413.315 531.998 413.703 527.018 416.667 523.511C421.323 518.002 437.235 520.121 444.31 519.7Z" fill="#022937"/>
<path id="Vector_4" d="M551.223 501.615C552.354 501.502 553.48 501.47 554.616 501.464C564.023 501.416 573.067 505.091 579.775 511.686C589.78 521.68 590.043 534.69 590.116 547.932C590.247 571.82 589.654 595.71 589.636 619.599L589.627 645.405C589.622 650.215 589.942 655.479 589.202 660.225C588.595 664.119 586.52 667.939 583.689 670.666C577.276 676.846 567.885 676.519 559.624 676.42C549.977 676.379 537.73 678.41 528.997 673.469C525.032 671.226 521.29 667.101 520.276 662.557C518.279 653.601 519.537 642.166 519.594 632.96L519.553 589.773C519.541 579.196 519.454 568.619 519.294 558.044C519.152 550.04 518.535 541.752 519.46 533.791C520.175 527.645 522.22 521.324 525.77 516.215C531.938 507.335 540.918 503.515 551.223 501.615ZM556.254 561.862C565.316 561.308 573.361 555.873 577.258 547.674C581.156 539.475 580.29 529.805 574.998 522.428C569.706 515.052 560.824 511.133 551.808 512.197C538.4 513.78 528.686 525.744 529.89 539.191C531.094 552.637 542.779 562.685 556.254 561.862Z" fill="#022937"/>
<path id="Vector_5" d="M551.374 521.778C559.737 519.847 568.078 525.079 569.981 533.448C571.885 541.818 566.626 550.142 558.251 552.018C549.913 553.886 541.636 548.657 539.741 540.325C537.846 531.993 543.048 523.699 551.374 521.778Z" fill="#022937"/>
<path id="Vector_6" d="M727.51 462.254C735.539 462.613 743.058 464.44 749.113 470.093C755.358 475.925 758.858 485.017 758.945 493.493C759.109 509.607 749.991 523.49 739.099 534.602C730.661 543.211 720.557 550.288 709.862 555.803C677.411 572.537 651.187 569.185 616.362 569.481C611.242 569.348 606.12 569.345 601 569.473C601.148 543.669 604.541 521.344 585.055 501.176C596.929 502.26 608.623 501.455 620.501 501.454C633.417 501.453 646.131 502.191 659.047 501.101C671.706 500.032 685.236 495.418 694.082 485.934C697.692 482.064 700.612 477.55 704.047 473.519C710.274 466.212 718.083 463.025 727.51 462.254Z" fill="#022937"/>
<path id="Vector_7" d="M536.754 349.653C538.459 349.507 540.038 349.519 541.74 349.74C550.336 350.853 555.381 355.879 560.361 362.427C573.948 364.2 587.705 365.067 601.354 366.256L661.142 371.606C656.654 375.196 652.952 379.521 650.483 384.736C645.332 395.619 646.342 405.557 650.317 416.591C635.93 412.303 621.276 408.691 606.759 404.858C589.604 400.25 572.421 395.75 555.209 391.358C549.858 395.282 545.254 397.236 538.772 398.637C536.718 403.941 534.628 409.23 532.5 414.505C535.523 416.041 537.944 417.655 540.348 420.049C539.007 424.361 537.591 428.584 535.193 432.439C533.648 433.143 532.271 433.709 531.048 434.91C533.146 440.825 538.367 445.528 540.694 451.615L540.968 452.341C541.05 455.591 539.917 459.651 538.809 462.706C534.741 473.921 519.657 481.304 509.4 485.866C506.955 484.617 504.665 483.03 502.351 481.556C509.136 474.127 517.619 468.602 525.42 462.313C522.228 456.526 519.653 450.419 517.737 444.093C512.238 442.311 506.748 440.404 501.14 438.993C496.257 442.053 491.344 444.944 486.275 447.687C487.397 457.058 488.726 466.393 487.383 475.811C484.643 474.624 482.009 473.219 479.355 471.854C476.742 461.181 475.941 449.868 474.434 438.992C479.889 432.712 486.207 427.413 492.95 422.566C496.248 422.414 499.527 422.052 502.81 421.721C501.743 417.584 501.709 412.553 503.791 408.708C504.702 407.026 506.056 405.749 507.962 405.322C511.015 404.639 513.406 406.393 515.835 407.959C518.316 402.778 520.002 397.271 522.622 392.127C518.987 387.997 516.155 383.186 515.187 377.704C514.064 371.34 515.371 364.65 519.187 359.392C523.547 353.383 529.693 350.853 536.754 349.653ZM542.181 389.742C551.063 387.741 556.62 378.894 554.566 370.024C552.512 361.154 543.632 355.65 534.775 357.757C525.992 359.846 520.545 368.635 522.581 377.43C524.618 386.225 533.374 391.725 542.181 389.742Z" fill="#022937"/>
<path id="Vector_8" d="M537.041 364.71C541.844 363.985 546.338 367.253 547.129 372.046C547.919 376.838 544.713 381.376 539.932 382.233C536.78 382.798 533.568 381.623 531.525 379.156C529.483 376.69 528.926 373.316 530.068 370.324C531.21 367.332 533.875 365.187 537.041 364.71Z" fill="#022937"/>
<path id="Vector_9" d="M682.304 372.62C685.625 372.413 688.757 372.585 692.003 373.371C697.238 374.638 701.931 377.112 705.714 380.989C713.243 388.706 717.793 398.988 723.164 408.224L742.871 441.699C745.865 446.88 748.496 452.284 751.584 457.401C738.811 452.091 728.937 449.65 715.327 453.274C705.606 457.293 698.815 462.423 692.405 470.733C687.538 461.871 682.525 453.09 677.368 444.393C670.456 432.743 660.36 419.545 657.737 406.144C656.292 398.639 658.021 390.871 662.513 384.688C667.242 378.042 674.356 374.006 682.304 372.62ZM688.254 419.727C695.133 418.758 700.954 414.156 703.484 407.687C706.014 401.219 704.859 393.888 700.463 388.51C696.067 383.133 689.112 380.543 682.27 381.736C671.927 383.539 664.941 393.304 666.575 403.675C668.209 414.047 677.858 421.191 688.254 419.727Z" fill="#022937"/>
<path id="Vector_10" d="M683.772 389.774C689.599 388.698 695.199 392.538 696.296 398.361C697.393 404.185 693.573 409.798 687.754 410.916C681.905 412.039 676.256 408.196 675.153 402.343C674.051 396.49 677.915 390.855 683.772 389.774Z" fill="#022937"/>
</g>
</svg>
